<?xml version="1.0" encoding="UTF-8"?>
<svg xmlns="http://www.w3.org/2000/svg" width="200" height="200" viewBox="0 0 200 200" preserveAspectRatio="xMidYMid meet">
  <g fill="#000000">
    <path d="M85 5 c-3.6 9.4 -12.9 26.1 -19.5 34.9 -16.1 21.4 -37.3 37.1 -63 46.6 -4.6 1.7 3.1 2.9 18 2.9 14.4 0.1 15.3 -0.1 23 -3 22.5 -8.6 37.8 -25.6 43.6 -48.2 2.2 -8.7 2.4 -23.8 0.4 -31.7 l-1.2 -5 -1.3 3.5 z"/>
    <path d="M112.6 2.8 c-0.3 0.5 -1.1 4.2 -1.7 8.3 -2.1 13.5 0.5 29.8 6.6 41.9 8.4 16.7 25.6 30.3 44.1 35 8.8 2.3 24.6 2.6 32.9 0.6 l5 -1.1 -5 -1.9 c-34.6 -13.1 -64.4 -42 -78.1 -75.9 -1.8 -4.3 -3.4 -7.4 -3.8 -6.9 z"/>
    <path d="M91 77.3 c-4.9 1.6 -13.3 10.2 -14.8 15.3 -2.1 7 -1.5 13.6 1.6 19.5 8.9 17.1 32.1 18 42.9 1.7 2.3 -3.3 2.8 -5.5 3.1 -11.5 0.4 -6.3 0.1 -8.1 -2.2 -12.7 -5.4 -11.1 -18.2 -16.2 -30.6 -12.3 z"/>
    <path d="M11.5 111.6 c-1.6 0.3 -4.8 1 -7 1.6 l-4 1 5.5 2.2 c17.8 7.3 31.7 16.3 44.8 29 14.6 14.1 26.4 31.3 32.2 46.9 1.4 3.7 2.8 6.7 3.2 6.7 1.4 0 2.3 -7.8 2.3 -20 0 -11.1 -0.4 -13.4 -2.8 -20.7 -7.4 -21.5 -26.3 -39.3 -47.6 -44.8 -6.6 -1.7 -21.2 -2.7 -26.6 -1.9 z"/>
    <path d="M167.8 112 c-25.6 4.3 -46 22.1 -54.9 48 -1.7 5.1 -2.2 8.9 -2.3 18 -0.1 12.2 0.9 21 2.5 21 0.5 0 0.9 -0.6 0.9 -1.4 0 -3 13.4 -27.7 19.4 -35.7 8.3 -10.9 22.2 -24.2 32.8 -31.2 8.9 -5.9 21.8 -12.6 28.1 -14.7 5 -1.6 3.8 -2.6 -4.3 -3.9 -7.4 -1.2 -15.3 -1.2 -22.2 -0.1 z"/>
  </g>
</svg>
