<?xml version="1.0" encoding="UTF-8"?>
<svg xmlns="http://www.w3.org/2000/svg" width="200" height="200" viewBox="0 0 200 200" preserveAspectRatio="xMidYMid meet">
  <g transform="translate(0,199) scale(0.1,-0.1)" fill="#000000" stroke="none">
    <path d="M850 1940 c-36 -94 -129 -261 -195 -349 -161 -214 -373 -371 -630 -466 -46 -17 31 -29 180 -29 144 -1 153 1 230 30 225 86 378 256 436 482 22 87 24 238 4 317 l-12 50 -13 -35z"/>
    <path d="M1126 1962 c-3 -5 -11 -42 -17 -83 -21 -135 5 -298 66 -419 84 -167 256 -303 441 -350 88 -23 246 -26 329 -6 l50 11 -50 19 c-346 131 -644 420 -781 759 -18 43 -34 74 -38 69z"/>
    <path d="M910 1217 c-49 -16 -133 -102 -148 -153 -21 -70 -15 -136 16 -195 89 -171 321 -180 429 -17 23 33 28 55 31 115 4 63 1 81 -22 127 -54 111 -182 162 -306 123z"/>
    <path d="M115 874 c-16 -3 -48 -10 -70 -16 l-40 -10 55 -22 c178 -73 317 -163 448 -290 146 -141 264 -313 322 -469 14 -37 28 -67 32 -67 14 0 23 78 23 200 0 111 -4 134 -28 207 -74 215 -263 393 -476 448 -66 17 -212 27 -266 19z"/>
    <path d="M1678 870 c-256 -43 -460 -221 -549 -480 -17 -51 -22 -89 -23 -180 -1 -122 9 -210 25 -210 5 0 9 6 9 14 0 30 134 277 194 357 83 109 222 242 328 312 89 59 218 126 281 147 50 16 38 26 -43 39 -74 12 -153 12 -222 1z"/>
  </g>
</svg>
